<?xml version="1.0" encoding="UTF-8"?><svg id="Layer_1" xmlns="http://www.w3.org/2000/svg" xmlns:xlink="http://www.w3.org/1999/xlink" viewBox="0 0 500 500"><defs><style>.cls-1{fill:url(#linear-gradient-2);}.cls-2{fill:url(#linear-gradient);}</style><linearGradient id="linear-gradient" x1="92.2" y1="118.5" x2="433.5" y2="459.9" gradientUnits="userSpaceOnUse"><stop offset=".3" stop-color="#283c64"/><stop offset=".5" stop-color="#55b648"/></linearGradient><linearGradient id="linear-gradient-2" x1="82.5" y1="128.2" x2="423.8" y2="469.6" xlink:href="#linear-gradient"/></defs><path class="cls-2" d="M436.4,22.2c-31-11.9-63-10.3-94.7-5.4-31.4,4.9-61.9,13.9-91.9,24.4-37.4,13.1-73.5,29.4-108.9,47.2-23.4,11.8-46.1,25-69.2,37.5-2.4,1.3-5.4,2.5-6.3,6.2,7.9,1.1,14.7-2.4,21.7-4.3,31.7-8.4,63-17.8,94.8-25.7,24.6-6.1,49.1-12.4,74-17.4,19.3-3.9,38.7-6.8,58.4-7.1,16.1-.2,32.3-.7,48.3,1.3,11,1.3,21.9,3.5,30.8,10.8,8.2,6.7,14.6,14.6,15.7,25.9,2.4,23.1-7.6,41.9-19.7,60.1-13.4,20.2-30.6,36.8-48.8,52.4-11.9,10.1-24.3,19.8-37.1,28.7-3.2,2.2-4.7,1.9-7.1-1.2-11.2-14.3-22.9-28.3-34.2-42.5-23.1-28.9-46-57.9-69.1-86.8-4.3-5.4-4.7-5.4-7.7,.9-13.5,27.8-27,55.6-40.5,83.4-16.3,33.5-32.6,66.9-49,100.4-10.6,21.6-21.6,43.1-32.2,64.7-14.1,28.7-27.9,57.4-41.8,86.1-4.1,8.4-8,16.9-11.9,25.4,7.8-2.3,14.2-6.2,20.8-9.9,25-13.9,48.3-30.4,71.2-47.5,17.7-13.1,34.7-27,51.1-41.8,17.5-15.8,34.4-32.1,47.5-51.9,1.8-2.7,4.1-5.6,3.8-10-1.5,.7-2.5,1-3.4,1.5-18,11-36.1,22.1-54.1,33.1-2.1,1.3-4.6,3.7-6.9,1.8-2.3-1.9,.6-4.2,1.5-6.1,11.4-23.5,22.8-47,34.7-70.2,4.8-9.4,9.2-19,14.1-28.4,1.1-2.2,2.6-6.6,6.2-1.9,10.7,13.9,21.4,27.8,31.8,42,4.7,6.4,6.2,13.6,2.7,21.5-5.1,11.5-12.1,21.9-20.5,31.1-10.8,11.9-22.6,23-33.3,35-5.4,6.1-11.6,11.6-16.8,18.4,2.1,1.1,3,.4,3.9-.1,35.4-20.8,71.1-41.1,105.6-63.4,28.4-18.4,56.6-37.1,83.9-57.2,21.6-15.8,42.1-32.9,61-51.6,22.2-22.1,43.1-45.4,57.2-73.9,9.6-19.4,17.8-38.7,18-61.3,.3-33.7-25.7-63.5-53.5-74.2Z"/><path class="cls-1" d="M430,430.3c-16.1-20.1-32.3-40.2-48.5-60.3-13-16.1-25.8-32.4-38.8-48.5-2.4-3-4.9-4.1-8.7-1.6-6,4-12.4,7.3-18.6,10.9-13.2,7.6-26.4,15.3-39.6,23-2.4,1.4-5.8,2.4-2.6,6.5,7.1,9.2,13.8,18.7,20.7,28,17,22.9,33.9,45.9,51,68.7,3.5,4.7,7.7,9.4,12.4,8.3,11.9-1.1,21.3-2.6,30.8-2.8,19.9-.5,39.6-3.5,59.5-3.9,3.8,0,4-1.4,1.9-4.1-6.5-8.1-12.9-16.2-19.4-24.2Z"/></svg>