<?xml version="1.0" encoding="UTF-8"?><svg id="Layer_1" xmlns="http://www.w3.org/2000/svg" viewBox="0 0 100 100"><defs><style>.cls-1{fill:#fff;}</style></defs><path class="cls-1" d="M58.9,32.2c-10.1,0-20.2,0-30.3,0-4.9,0-7.6-2.7-7.6-7.6,0-1.6,0-3.1,.2-4.7,.5-3.2,3.1-5.4,6.4-5.6,.2,0,.5,0,.7,0,20.4,0,40.8,0,61.2,0,3.6,0,6.5,1.2,8.4,4.5,2.8,5.1,.4,13.4-8.1,13.4-10.3,0-20.5,0-30.8,0Z"/><path class="cls-1" d="M51.4,67.8c7.7,0,15.3,0,23,0,4.4,0,8,2.8,8.9,6.9,1.3,5.6-2.8,10.9-8.6,11-2.6,0-5.1,0-7.7,0-12.8,0-25.5,0-38.3,0-4.8,0-7.5-2.7-7.5-7.5,0-1.2,0-2.4,0-3.5,0-3.9,3-6.8,6.9-6.9,7.8,0,15.6,0,23.4,0Z"/><path class="cls-1" d="M35.6,59c-2.5,0-4.9,0-7.4,0-4.2,0-7.1-2.9-7.1-7.1,0-1.7,0-3.5,.2-5.2,.5-3.2,3.2-5.6,6.4-5.6,5.2,0,10.4,0,15.7,0,4.2,0,7.5,2.6,8.5,6.4,1.1,3.9-.4,8-3.6,10.1-1.6,1-3.4,1.4-5.3,1.4-2.5,0-4.9,0-7.4,0Z"/><path class="cls-1" d="M15.4,22.8c3.1,2.5,3.8,5.8,3.5,9.4,0,1.3-.9,2.1-2.2,2.2-4.4,0-8.9,0-13.4,0-1.4,0-2.2-1-2.3-2.4-.2-3.6,.6-6.8,3.5-9.1-2-3.7-1.5-7.1,1.4-9.4,2.3-1.9,6-1.8,8.2,0,2.7,2.3,3.2,5.9,1.2,9.3Z"/><path class="cls-1" d="M15.4,49.6c2.9,2.3,3.7,5.5,3.5,9,0,1.7-.9,2.5-2.5,2.5-4.3,0-8.6,0-12.9,0-1.6,0-2.4-.9-2.5-2.5-.1-2.7,.2-5.4,2.1-7.5,.4-.5,1-1,1.5-1.5-1.2-1.7-1.6-3.6-1.1-5.6,.4-1.6,1.3-2.9,2.5-3.8,2.3-1.8,5.9-1.7,8.1,.2,2.7,2.3,3.1,5.6,1.2,9.3Z"/><path class="cls-1" d="M4.6,76.3c-1.9-3.6-1.5-7,1.3-9.3,2.3-1.9,6-1.9,8.3,0,2.7,2.3,3.2,5.8,1.2,9.3,2.9,2.3,3.7,5.5,3.5,9,0,1.7-.9,2.6-2.6,2.6-4.2,0-8.5,0-12.7,0-1.8,0-2.5-.9-2.6-2.7-.1-2.7,.2-5.2,2-7.3,.4-.5,1-1,1.5-1.6Z"/></svg>