<?xml version="1.0" encoding="utf-8"?>
<!-- Generator: Adobe Illustrator 24.1.1, SVG Export Plug-In . SVG Version: 6.00 Build 0)  -->
<svg version="1.1" id="Layer_1" xmlns="http://www.w3.org/2000/svg" xmlns:xlink="http://www.w3.org/1999/xlink" x="0px" y="0px"
	 viewBox="0 0 512 512" style="enable-background:new 0 0 512 512;" xml:space="preserve">
<style type="text/css">
	.st0{fill-rule:evenodd;clip-rule:evenodd;fill:#eeeeee;}
	.st1{fill-rule:evenodd;clip-rule:evenodd;fill:#ffffff;}
</style>
<g>
	<path class="st0" d="M31.4,7.58L0,38.98l22.27,22.05v265.22c0,24.51,19.81,44.54,44.32,44.54H222.7v44.54h-44.54v44.54h178.16
		v-44.54h-44.54V370.8h20.03l133.62,133.62l31.4-31.38L31.4,7.58z M66.59,326.26V105.58l220.68,220.68H66.59z M101.33,14.47
		l44.54,44.54h321.81v267.24h-54.57l44.54,44.54h9.81c24.49,0,44.54-20.03,44.54-44.54V59.01c0-24.49-20.05-44.54-44.54-44.54
		H101.33z"/>
	<path class="st1" d="M66.59,105.58v220.68h220.68L66.59,105.58z M145.87,59.01l267.24,267.24h54.57V59.01H145.87z"/>
</g>
</svg>
